<svg xmlns="http://www.w3.org/2000/svg" version="1.1" xmlns:xlink="http://www.w3.org/1999/xlink" viewBox="0 0 200 200"><rect width="200" height="200" fill="url('#gradient')"></rect><defs><linearGradient id="gradient" gradientTransform="rotate(45 0.5 0.5)"><stop offset="0%" stop-color="#ceaa96"></stop><stop offset="100%" stop-color="#8fa983"></stop></linearGradient></defs><g><g fill="#445272" transform="matrix(7.692821368948247,0,0,7.692821368948247,10.224847651134937,153.92839488680653)" stroke="#c8512e" stroke-width="0.2"><path d="M3.77-14.22L6.59-3.87L9.42-14.22L13.25-14.22L8.47 0L4.72 0L-0.03-14.22L3.77-14.22ZM19.95-4.46L19.95-14.22L23.37-14.22L23.37-4.46Q23.37-3.11 22.74-2.04Q22.11-0.98 20.98-0.39Q19.85 0.20 18.47 0.20L18.47 0.20Q16.14 0.20 14.85-0.98Q13.56-2.15 13.56-4.30L13.56-4.30L17.00-4.30Q17.00-3.32 17.34-2.88Q17.68-2.44 18.47-2.44L18.47-2.44Q19.18-2.44 19.57-2.97Q19.95-3.51 19.95-4.46L19.95-4.46Z"></path></g></g></svg>